<?xml version="1.0" encoding="utf-8"?>
<!-- Generator: Adobe Illustrator 27.0.0, SVG Export Plug-In . SVG Version: 6.00 Build 0)  -->
<svg version="1.1" id="Layer_2" xmlns="http://www.w3.org/2000/svg" xmlns:xlink="http://www.w3.org/1999/xlink" x="0px" y="0px"
	 viewBox="0 0 174.9 148.8" style="enable-background:new 0 0 174.9 148.8;" xml:space="preserve">
<style type="text/css">
	.st0{fill:#FFFFFF;}
</style>
<path class="st0" d="M88.6,4.1c0.7,0,1.4,0.1,2.1,0.2l71.9,16.8c1.9,0.4,3.2,2.1,3.2,4v2c0,1-0.4,2-1,2.7l-65.2,74.7h-8.1L28.4,87.3
	c0,0-8.1,0.8-8.1,13s9.7,14.6,9.7,14.6l67.8,19l53.3-60.1c1.3-1.4,2-3.3,2-5.2V51.6c0-3.9,1.8-5.5,6-5.5c5.5,0,4.7,5.2,4.7,5.2v20
	c0,2-0.7,4-2,5.6l-54.6,64c-2.1,2.5-5.2,3.9-8.5,3.9h-3.7c-1,0-2.1-0.1-3-0.4l-71.6-20.2c0,0-11.2-8.9-11.2-23.7s5.7-21.1,5.7-21.1
	L77.2,7.4c1.8-2.1,4.4-3.3,7.1-3.3H88.6z M79.7,26.4l-6,8.3c-1.3,1.9-0.4,4.5,1.8,5.1l44.7,11.7c1.3,0.3,2.7-0.2,3.5-1.3l6.2-8.7
	c1.3-1.9,0.4-4.5-1.9-5.1l-45-11.3C81.8,24.8,80.4,25.3,79.7,26.4z"/>
</svg>
